<svg xmlns="http://www.w3.org/2000/svg" xmlns:xlink="http://www.w3.org/1999/xlink" width="500" zoomAndPan="magnify" viewBox="0 0 375 374.999991" height="500" preserveAspectRatio="xMidYMid meet" version="1.0"><defs><filter x="0%" y="0%" width="100%" height="100%" id="7e6150ed4a"><feColorMatrix values="0 0 0 0 1 0 0 0 0 1 0 0 0 0 1 0 0 0 1 0" color-interpolation-filters="sRGB"/></filter><clipPath id="f95026998b"><path d="M 76.3125 95.214844 L 298.3125 95.214844 L 298.3125 148 L 76.3125 148 Z M 76.3125 95.214844 " clip-rule="nonzero"/></clipPath><clipPath id="ba3532745e"><path d="M 76.316406 126.066406 L 298.3125 126.066406 L 298.3125 279.714844 L 76.316406 279.714844 Z M 76.316406 126.066406 " clip-rule="nonzero"/></clipPath><clipPath id="5d4bcb5b9a"><path d="M 82.796875 131.425781 L 291.207031 131.425781 L 291.207031 274.460938 L 82.796875 274.460938 Z M 82.796875 131.425781 " clip-rule="nonzero"/></clipPath><clipPath id="aaf03418e0"><path d="M 91.046875 131.425781 L 282.777344 131.425781 C 287.332031 131.425781 291.027344 135.117188 291.027344 139.675781 L 291.027344 266.210938 C 291.027344 270.765625 287.332031 274.460938 282.777344 274.460938 L 91.046875 274.460938 C 86.488281 274.460938 82.796875 270.765625 82.796875 266.210938 L 82.796875 139.675781 C 82.796875 135.117188 86.488281 131.425781 91.046875 131.425781 Z M 91.046875 131.425781 " clip-rule="nonzero"/></clipPath><mask id="dfbe9120dd"><g filter="url(#7e6150ed4a)"><rect x="-37.5" width="450" fill="#000000" y="-37.499999" height="449.999989" fill-opacity="0.56"/></g></mask><clipPath id="0b4e6768fb"><path d="M 0.1875 0.0898438 L 99.636719 0.0898438 L 99.636719 99.539062 L 0.1875 99.539062 Z M 0.1875 0.0898438 " clip-rule="nonzero"/></clipPath><clipPath id="c61a3afc23"><path d="M 49.910156 0.0898438 C 22.449219 0.0898438 0.1875 22.351562 0.1875 49.8125 C 0.1875 77.273438 22.449219 99.539062 49.910156 99.539062 C 77.371094 99.539062 99.636719 77.273438 99.636719 49.8125 C 99.636719 22.351562 77.371094 0.0898438 49.910156 0.0898438 Z M 49.910156 0.0898438 " clip-rule="nonzero"/></clipPath><clipPath id="2271b6fa54"><rect x="0" width="100" y="0" height="100"/></clipPath><clipPath id="2ad6e38a89"><path d="M 109.652344 148.386719 L 192 148.386719 L 192 230 L 109.652344 230 Z M 109.652344 148.386719 " clip-rule="nonzero"/></clipPath><clipPath id="fcb5d8b035"><path d="M 163 196 L 201 196 L 201 233.886719 L 163 233.886719 Z M 163 196 " clip-rule="nonzero"/></clipPath><mask id="e6bc20e319"><g filter="url(#7e6150ed4a)"><rect x="-37.5" width="450" fill="#000000" y="-37.499999" height="449.999989" fill-opacity="0.56"/></g></mask><clipPath id="81bee184cd"><path d="M 0.828125 0.515625 L 45.289062 0.515625 L 45.289062 44.980469 L 0.828125 44.980469 Z M 0.828125 0.515625 " clip-rule="nonzero"/></clipPath><clipPath id="34478b12b5"><path d="M 23.058594 0.515625 C 10.78125 0.515625 0.828125 10.472656 0.828125 22.75 C 0.828125 35.027344 10.78125 44.980469 23.058594 44.980469 C 35.335938 44.980469 45.289062 35.027344 45.289062 22.75 C 45.289062 10.472656 35.335938 0.515625 23.058594 0.515625 Z M 23.058594 0.515625 " clip-rule="nonzero"/></clipPath><clipPath id="51ac3adc1c"><rect x="0" width="46" y="0" height="46"/></clipPath></defs><g clip-path="url(#f95026998b)"><path fill="#ff0000" d="M 76.316406 147.65625 L 76.316406 115.226562 C 76.316406 104.175781 85.273438 95.214844 96.324219 95.214844 L 139.308594 95.214844 C 143.546875 95.214844 147.671875 96.5625 151.097656 99.054688 L 169.8125 112.695312 L 278.667969 112.695312 C 289.71875 112.695312 298.675781 121.65625 298.675781 132.707031 L 298.675781 147.65625 L 76.316406 147.65625 " fill-opacity="1" fill-rule="nonzero"/></g><g clip-path="url(#ba3532745e)"><path fill="#a30404" d="M 278.667969 126.113281 L 96.324219 126.113281 C 85.273438 126.113281 76.316406 135.070312 76.316406 146.121094 L 76.316406 259.761719 C 76.316406 270.8125 85.273438 279.769531 96.324219 279.769531 L 278.667969 279.769531 C 289.71875 279.769531 298.675781 270.8125 298.675781 259.761719 L 298.675781 146.121094 C 298.675781 135.070312 289.71875 126.113281 278.667969 126.113281 " fill-opacity="1" fill-rule="nonzero"/></g><g clip-path="url(#5d4bcb5b9a)"><g clip-path="url(#aaf03418e0)"><path fill="#ff0000" d="M 82.796875 131.425781 L 291.207031 131.425781 L 291.207031 274.460938 L 82.796875 274.460938 Z M 82.796875 131.425781 " fill-opacity="1" fill-rule="nonzero"/></g></g><g mask="url(#dfbe9120dd)"><g transform="matrix(1, 0, 0, 1, 137, 156)"><g clip-path="url(#2271b6fa54)"><g clip-path="url(#0b4e6768fb)"><g clip-path="url(#c61a3afc23)"><path fill="#000000" d="M 0.1875 0.0898438 L 99.636719 0.0898438 L 99.636719 99.539062 L 0.1875 99.539062 Z M 0.1875 0.0898438 " fill-opacity="1" fill-rule="nonzero"/></g></g></g></g></g><g clip-path="url(#2ad6e38a89)"><path fill="#43b14b" d="M 167.117188 226.378906 C 162.042969 228.675781 156.386719 229.902344 150.460938 229.902344 C 127.933594 229.902344 109.675781 211.699219 109.675781 189.171875 C 109.675781 166.644531 127.933594 148.386719 150.460938 148.386719 C 172.933594 148.386719 191.191406 166.644531 191.191406 189.171875 C 191.191406 192.214844 190.871094 195.203125 190.230469 198.03125 Z M 167.117188 226.378906 " fill-opacity="1" fill-rule="evenodd"/></g><path fill="#ffffff" d="M 128.574219 195.578125 C 125.796875 192.480469 128.039062 187.570312 132.148438 187.570312 C 133.429688 187.570312 134.660156 188.050781 135.566406 188.957031 L 141.226562 194.617188 C 147.523438 184.527344 155.691406 175.558594 167.007812 171.394531 C 171.066406 169.898438 174.855469 174.0625 173.042969 177.960938 C 172.5625 179.082031 171.601562 179.988281 170.371094 180.46875 C 159.695312 184.367188 151.847656 194.667969 146.511719 204.597656 C 144.910156 207.640625 141.066406 208.066406 138.769531 205.824219 Z M 128.574219 195.578125 " fill-opacity="1" fill-rule="evenodd"/><g clip-path="url(#fcb5d8b035)"><path fill="#ffd600" d="M 200.800781 214.953125 C 200.800781 215.570312 200.769531 216.183594 200.710938 216.796875 C 200.648438 217.410156 200.558594 218.015625 200.4375 218.621094 C 200.320312 219.222656 200.171875 219.820312 199.992188 220.410156 C 199.8125 221 199.605469 221.578125 199.371094 222.144531 C 199.132812 222.714844 198.871094 223.269531 198.582031 223.8125 C 198.292969 224.355469 197.976562 224.882812 197.632812 225.394531 C 197.292969 225.90625 196.925781 226.398438 196.535156 226.875 C 196.144531 227.351562 195.730469 227.804688 195.296875 228.242188 C 194.863281 228.675781 194.40625 229.089844 193.929688 229.480469 C 193.453125 229.871094 192.960938 230.238281 192.449219 230.578125 C 191.9375 230.921875 191.410156 231.238281 190.867188 231.527344 C 190.324219 231.816406 189.769531 232.078125 189.199219 232.316406 C 188.632812 232.550781 188.054688 232.757812 187.464844 232.9375 C 186.875 233.113281 186.277344 233.265625 185.675781 233.382812 C 185.070312 233.503906 184.464844 233.59375 183.851562 233.65625 C 183.238281 233.714844 182.625 233.746094 182.007812 233.746094 C 181.394531 233.746094 180.78125 233.714844 180.167969 233.65625 C 179.554688 233.59375 178.949219 233.503906 178.34375 233.382812 C 177.738281 233.265625 177.144531 233.113281 176.554688 232.9375 C 175.964844 232.757812 175.386719 232.550781 174.820312 232.316406 C 174.25 232.078125 173.695312 231.816406 173.152344 231.527344 C 172.609375 231.238281 172.082031 230.921875 171.570312 230.578125 C 171.058594 230.238281 170.566406 229.871094 170.089844 229.480469 C 169.613281 229.089844 169.15625 228.675781 168.722656 228.242188 C 168.289062 227.804688 167.875 227.351562 167.484375 226.875 C 167.09375 226.398438 166.726562 225.90625 166.386719 225.394531 C 166.042969 224.882812 165.726562 224.355469 165.4375 223.8125 C 165.148438 223.269531 164.882812 222.714844 164.648438 222.144531 C 164.414062 221.578125 164.207031 221 164.027344 220.410156 C 163.847656 219.820312 163.699219 219.222656 163.578125 218.621094 C 163.460938 218.015625 163.371094 217.410156 163.308594 216.796875 C 163.25 216.183594 163.21875 215.570312 163.21875 214.953125 C 163.21875 214.339844 163.25 213.726562 163.308594 213.113281 C 163.371094 212.5 163.460938 211.890625 163.578125 211.289062 C 163.699219 210.683594 163.847656 210.089844 164.027344 209.5 C 164.207031 208.910156 164.414062 208.332031 164.648438 207.761719 C 164.882812 207.195312 165.148438 206.640625 165.4375 206.097656 C 165.726562 205.554688 166.042969 205.027344 166.386719 204.515625 C 166.726562 204.003906 167.09375 203.507812 167.484375 203.035156 C 167.875 202.558594 168.289062 202.101562 168.722656 201.667969 C 169.15625 201.230469 169.613281 200.820312 170.089844 200.429688 C 170.566406 200.039062 171.058594 199.671875 171.570312 199.332031 C 172.082031 198.988281 172.609375 198.671875 173.152344 198.382812 C 173.695312 198.09375 174.25 197.828125 174.820312 197.59375 C 175.386719 197.359375 175.964844 197.152344 176.554688 196.972656 C 177.144531 196.792969 177.738281 196.644531 178.34375 196.523438 C 178.949219 196.40625 179.554688 196.316406 180.167969 196.253906 C 180.78125 196.195312 181.394531 196.164062 182.007812 196.164062 C 182.625 196.164062 183.238281 196.195312 183.851562 196.253906 C 184.464844 196.316406 185.070312 196.40625 185.675781 196.523438 C 186.277344 196.644531 186.875 196.792969 187.464844 196.972656 C 188.054688 197.152344 188.632812 197.359375 189.199219 197.59375 C 189.769531 197.828125 190.324219 198.09375 190.867188 198.382812 C 191.410156 198.671875 191.9375 198.988281 192.449219 199.332031 C 192.960938 199.671875 193.453125 200.039062 193.929688 200.429688 C 194.40625 200.820312 194.863281 201.230469 195.296875 201.667969 C 195.730469 202.101562 196.144531 202.558594 196.535156 203.035156 C 196.925781 203.507812 197.292969 204.003906 197.632812 204.515625 C 197.976562 205.027344 198.292969 205.554688 198.582031 206.097656 C 198.871094 206.640625 199.132812 207.195312 199.371094 207.761719 C 199.605469 208.332031 199.8125 208.910156 199.992188 209.5 C 200.171875 210.089844 200.320312 210.683594 200.4375 211.289062 C 200.558594 211.890625 200.648438 212.5 200.710938 213.113281 C 200.769531 213.726562 200.800781 214.339844 200.800781 214.953125 Z M 200.800781 214.953125 " fill-opacity="1" fill-rule="nonzero"/></g><path fill="#ffffff" d="M 178.96875 206.679688 C 178.96875 205.023438 180.355469 203.636719 182.007812 203.636719 C 183.664062 203.636719 185.050781 205.023438 185.050781 206.679688 L 185.050781 223.175781 C 185.050781 224.882812 183.664062 226.21875 182.007812 226.21875 C 180.355469 226.21875 178.96875 224.882812 178.96875 223.175781 Z M 178.96875 206.679688 " fill-opacity="1" fill-rule="nonzero"/><path fill="#ffffff" d="M 190.285156 211.910156 C 191.9375 211.910156 193.328125 213.246094 193.328125 214.953125 C 193.328125 216.609375 191.9375 217.996094 190.285156 217.996094 L 173.734375 217.996094 C 172.082031 217.996094 170.691406 216.609375 170.691406 214.953125 C 170.691406 213.246094 172.082031 211.910156 173.734375 211.910156 Z M 190.285156 211.910156 " fill-opacity="1" fill-rule="nonzero"/><g mask="url(#e6bc20e319)"><g transform="matrix(1, 0, 0, 1, 200, 211)"><g clip-path="url(#51ac3adc1c)"><g clip-path="url(#81bee184cd)"><g clip-path="url(#34478b12b5)"><path fill="#000000" d="M 0.828125 0.515625 L 45.289062 0.515625 L 45.289062 44.980469 L 0.828125 44.980469 Z M 0.828125 0.515625 " fill-opacity="1" fill-rule="nonzero"/></g></g></g></g></g></svg>